<?xml version="1.0" encoding="UTF-8" standalone="no"?>
<!DOCTYPE svg PUBLIC "-//W3C//DTD SVG 1.1//EN"
 "http://www.w3.org/Graphics/SVG/1.1/DTD/svg11.dtd">
<!-- Generated by graphviz version 2.38.0 (20140413.2041)
 -->
<!-- Title: G Pages: 1 -->
<svg width="315pt" height="165pt"
 viewBox="0.00 0.00 314.99 165.00" xmlns="http://www.w3.org/2000/svg" xmlns:xlink="http://www.w3.org/1999/xlink">
<g id="graph0" class="graph" transform="scale(1 1) rotate(0) translate(4 161)">
<title>G</title>
<polygon fill="white" stroke="none" points="-4,4 -4,-161 310.985,-161 310.985,4 -4,4"/>
<g id="clust1" class="cluster"><title>cluster_Global</title>
<path fill="none" stroke="gray" d="M194.177,-8C194.177,-8 286.985,-8 286.985,-8 292.985,-8 298.985,-14 298.985,-20 298.985,-20 298.985,-137 298.985,-137 298.985,-143 292.985,-149 286.985,-149 286.985,-149 194.177,-149 194.177,-149 188.177,-149 182.177,-143 182.177,-137 182.177,-137 182.177,-20 182.177,-20 182.177,-14 188.177,-8 194.177,-8"/>
<text text-anchor="middle" x="240.581" y="-136.2" font-family="Times,serif" font-size="11.00" fill="gray">Global</text>
</g>
<g id="clust2" class="cluster"><title>cluster_\maccotsan</title>
<path fill="none" stroke="gray" d="M202.177,-16C202.177,-16 278.985,-16 278.985,-16 284.985,-16 290.985,-22 290.985,-28 290.985,-28 290.985,-110 290.985,-110 290.985,-116 284.985,-122 278.985,-122 278.985,-122 202.177,-122 202.177,-122 196.177,-122 190.177,-116 190.177,-110 190.177,-110 190.177,-28 190.177,-28 190.177,-22 196.177,-16 202.177,-16"/>
<text text-anchor="middle" x="240.581" y="-109.2" font-family="Times,serif" font-size="11.00" fill="gray">maccotsan</text>
</g>
<g id="clust3" class="cluster"><title>cluster_\maccotsan\Carbon</title>
<path fill="none" stroke="gray" d="M210.177,-24C210.177,-24 270.985,-24 270.985,-24 276.985,-24 282.985,-30 282.985,-36 282.985,-36 282.985,-83 282.985,-83 282.985,-89 276.985,-95 270.985,-95 270.985,-95 210.177,-95 210.177,-95 204.177,-95 198.177,-89 198.177,-83 198.177,-83 198.177,-36 198.177,-36 198.177,-30 204.177,-24 210.177,-24"/>
<text text-anchor="middle" x="240.581" y="-82.2" font-family="Times,serif" font-size="11.00" fill="gray">Carbon</text>
</g>
<!-- \\maccotsan\\Carbon\\CarbonJp -->
<g id="node1" class="node"><title>\\maccotsan\\Carbon\\CarbonJp</title>
<polygon fill="none" stroke="black" points="274.89,-68 206.272,-68 206.272,-32 274.89,-32 274.89,-68"/>
<text text-anchor="middle" x="240.581" y="-46.7" font-family="Courier,monospace" font-size="11.00">CarbonJp</text>
</g>
<!-- \\Carbon\\Carbon -->
<g id="node2" class="node"><title>\\Carbon\\Carbon</title>
<ellipse fill="none" stroke="black" cx="67.0885" cy="-50" rx="67.177" ry="18"/>
<text text-anchor="middle" x="67.0885" y="-45.8" font-family="Times,serif" font-size="14.00" fill="gray">\Carbon\Carbon</text>
</g>
<!-- \\maccotsan\\Carbon\\CarbonJp&#45;&gt;\\Carbon\\Carbon -->
<g id="edge1" class="edge"><title>\\maccotsan\\Carbon\\CarbonJp&#45;&gt;\\Carbon\\Carbon</title>
<path fill="none" stroke="black" d="M206.109,-50C188.521,-50 166.19,-50 144.642,-50"/>
<polygon fill="none" stroke="black" points="144.485,-46.5001 134.485,-50 144.485,-53.5001 144.485,-46.5001"/>
</g>
</g>
</svg>
